<svg width="96" height="96" viewBox="0 0 96 96" fill="none" xmlns="http://www.w3.org/2000/svg">
<path d="M68 48C68 59.0456 59.0456 68 48 68C36.9543 68 28 59.0456 28 48C28 36.9543 36.9543 28 48 28C59.0456 28 68 36.9543 68 48Z" fill="#EBB328"/>
<path fill-rule="evenodd" clip-rule="evenodd" d="M48 5C49.6568 5 51 6.34316 51 8V16C51 17.6568 49.6568 19 48 19C46.3432 19 45 17.6568 45 16V8C45 6.34316 46.3432 5 48 5ZM14.6746 14.8644C15.7926 13.6416 17.6902 13.5566 18.913 14.6746L27.801 22.801C29.0238 23.919 29.1088 25.8165 27.9908 27.0393C26.8728 28.2621 24.9752 28.3471 23.7524 27.2291L14.8644 19.1028C13.6416 17.9848 13.5566 16.0872 14.6746 14.8644ZM81.3256 14.8644C82.4436 16.0872 82.3584 17.9848 81.1356 19.1028L72.2476 27.2291C71.0248 28.3471 69.1272 28.2621 68.0092 27.0393C66.8912 25.8165 66.976 23.919 68.1988 22.801L77.0872 14.6746C78.31 13.5566 80.2072 13.6416 81.3256 14.8644ZM5 48C5 46.3432 6.34316 45 8 45H16C17.6568 45 19 46.3432 19 48C19 49.6568 17.6568 51 16 51H8C6.34316 51 5 49.6568 5 48ZM77 48C77 46.3432 78.3432 45 80 45H88C89.6568 45 91 46.3432 91 48C91 49.6568 89.6568 51 88 51H80C78.3432 51 77 49.6568 77 48ZM68.102 68.1008C69.2736 66.9292 71.1732 66.9292 72.3448 68.1008L81.2328 76.99C82.4044 78.1616 82.404 80.0612 81.2324 81.2328C80.0608 82.4044 78.1612 82.404 76.99 81.2324L68.102 72.3432C66.9304 71.1716 66.9304 69.2724 68.102 68.1008ZM27.8987 68.1012C29.0702 69.2728 29.0702 71.1724 27.8987 72.344L19.0098 81.2328C17.8382 82.4044 15.9387 82.4044 14.7671 81.2328C13.5956 80.0612 13.5956 78.1616 14.7671 76.9904L23.656 68.1012C24.8276 66.9296 26.7271 66.9296 27.8987 68.1012ZM48 77C49.6568 77 51 78.3432 51 80V88C51 89.6568 49.6568 91 48 91C46.3432 91 45 89.6568 45 88V80C45 78.3432 46.3432 77 48 77Z" fill="#EBB328"/>
</svg>
